<?xml version="1.0" encoding="UTF-8"?>
<!-- Created with Inkscape (http://www.inkscape.org/) -->
<svg width="626.29" height="244.03" version="1.1" viewBox="0 0 626.29 244.03" xml:space="preserve" xmlns="http://www.w3.org/2000/svg" xmlns:cc="http://creativecommons.org/ns#" xmlns:dc="http://purl.org/dc/elements/1.1/" xmlns:rdf="http://www.w3.org/1999/02/22-rdf-syntax-ns#"><metadata><rdf:RDF><cc:Work rdf:about=""><dc:format>image/svg+xml</dc:format><dc:type rdf:resource="http://purl.org/dc/dcmitype/StillImage"/><dc:title/></cc:Work></rdf:RDF></metadata><g transform="matrix(1.3333 0 0 -1.3333 -78.351 650.1)"><g transform="translate(225.17 332.53)"><path d="m0 0-0.206-0.014c-0.334-0.024-0.506-0.416-1.563-0.416h-16.766c-0.562 0-1.261 0-1.435-0.57-0.07-0.227-6e-3 -0.388 0.06-0.483 0.188-0.271 0.555-0.293 1.019-0.321 0.491-0.03 1.003-0.067 1.244-0.414 0.182-0.264 0.176-0.72-0.018-1.356l-3.059-10.327c-0.309-1.009-0.541-1.592-0.724-1.825-0.529-0.623-1.402-0.896-2.103-0.957-0.636-0.055-1.186-0.104-1.335-0.588-0.052-0.173-0.027-0.344 0.072-0.477 0.216-0.291 0.689-0.299 1.176-0.299h16.966c2.595 1e-3 3.196 3.057 4.469 5.05 0.325 0.507-6e-3 0.997-0.458 0.997-0.375 0-0.77-0.282-1.051-0.62-2.304-2.776-3.655-3.067-6.428-3.067 0 0-2.88-0.01-5.315 0.057-0.51 0.015-0.723 0.496-0.478 1.315 0.135 0.454 1.232 4.303 1.232 4.303h6.361c0.554-0.201 0.538-0.877 0.47-1.416-0.041-0.319-0.082-0.648 0.135-0.895 0.134-0.152 0.337-0.229 0.603-0.229 0.435 0 0.765 0.379 0.999 1.141l1.483 4.854c0.15 0.492 0.178 1.037 0.057 1.2-0.14 0.189-0.357 0.293-0.613 0.293-0.735 0-1.024-0.883-1.248-1.319-0.305-0.592-0.906-1.166-1.669-1.18h-5.851l1.029 3.605c0.147 0.388 0.441 1.132 1.106 1.141 2.139 0.029 5.739 0.029 5.739 0.029 2.118 0 2.962 0.213 3.461-0.457 0.213-0.285 0.12-0.961 0.111-1.673-3e-3 -0.251-0.058-0.495 0.127-0.68 0.203-0.202 0.432-0.218 0.622-0.21 0.718 0.029 1.859 3.405 2.321 4.196l0.1 0.329c0.38 1.107-0.279 1.256-0.642 1.283" fill="#231f20"/></g><g transform="translate(272.63 332.11)"><path d="m0 0h-6.836c-1.244 0.022-2.073-0.113-2.073-0.67 0-0.255-0.117-0.712 1.478-0.755 0.539-0.026 1.127-0.212 1.258-0.697 0.038-0.215 0.156-0.468-0.141-1.44l-2.06-6.915-8.54 8.319c-0.959 0.989-1.914 2.158-4.039 2.158h-3.712c-2.008 0-1.933-0.627-1.937-0.81-2e-3 -0.062-0.102-0.583 1.013-0.646 0 0 1.447 0.053 1.723-0.691 0.137-0.37 0.025-1.013-0.276-1.999l-2.86-9.351c-0.308-1.009-0.621-1.575-0.804-1.808-0.409-0.481-0.972-0.843-1.862-0.944-0.056-6e-3 -1.438-0.08-1.575-0.601-0.047-0.175-0.028-0.344 0.071-0.477 0.216-0.292 0.676-0.292 1.163-0.292l6.846-0.026c0.562 0 1.473 2e-3 1.647 0.572 0.043 0.142 0.011 0.288-0.072 0.412-0.258 0.385-1.034 0.343-1.495 0.385-0.684 0.062-0.986 0.394-1.07 0.745-0.038 0.214-0.093 0.853 0.204 1.824l2.536 7.915 12.023-11.741c0.451-0.423 0.804-0.529 1.157-0.508 0.931 0.056 1.025 0.823 1.214 1.44l3.782 12.559c0.423 1.891 2.003 2.625 2.961 2.634 0.141 2e-3 1.199 0.017 1.378 0.601 0.053 0.173 0.028 0.344-0.071 0.477-0.216 0.291-0.543 0.33-1.031 0.33" fill="#231f20"/></g><g transform="translate(309.82 323.86)"><path d="m0 0c-0.723-3.445-3.95-7.186-9.95-7.186l-3.902 0.02c-1.233 0-0.914 0.809-0.818 1.213l3.444 11.64c0.107 0.351 0.426 0.468 1.318 0.465h4.284c2.854 0 4.136-0.326 5.369-2.113 0.703-1.018 0.564-2.569 0.255-4.039m-6.102 8.249c-2.562 0-4.125-0.01-11.077-0.01-0.542 0-1.448-0.117-1.456-0.713-0.011-0.765 1.35-0.701 1.36-0.701 0.808-0.011 1.106-0.234 1.181-0.607 0.02-0.198-3e-3 -0.581-0.245-1.371l-3.03-10.078c-0.308-1.009-0.541-1.592-0.725-1.825-0.408-0.481-1.026-0.618-1.861-0.748-1.703-0.266-1.504-0.789-1.504-1.078 1e-3 -0.365 0.704-0.503 1.191-0.503l11.073 0.013c7.697-0.043 14.512 1.887 16.766 8.819 0.587 1.805 0.513 4.084-0.68 5.486-2.935 3.444-6.6 3.316-10.993 3.316" fill="#231f20"/></g><g transform="translate(359.88 323.05)"><path d="m0 0-8.043 0.042c-0.562 0-2.002-0.016-2.02-0.612-0.027-0.835 0.55-0.927 1.032-0.976 0.506-0.051 1.143-0.133 1.305-0.352 0.267-0.361 0.121-0.672-0.105-1.412l-0.802-2.524c-1.854-0.917-2.872-1.047-4.807-1.009-2.926 0.057-4.942 0.725-6.21 2.44-0.9 1.215-0.753 3.003-0.247 4.656 1.384 4.529 5.856 7.162 10.936 7.056 3.67-0.076 5.17-0.608 5.915-2.432 0.046-0.112 0.131-0.478 0.188-0.778 0.179-0.914-0.105-1.799 0.812-1.764h2e-3c0.739 0.071 0.916 1.094 1.102 1.615 0.302 0.84 0.539 1.566 0.738 2.238 0.628 2.109-0.034 2.393-0.595 2.393l-0.093-0.012c-0.249-0.071-0.492-0.166-0.836-0.166-0.066 3e-3 -0.451 0.07-0.686 0.11-0.173 0.03-0.829 0.329-1.043 0.384-1.8 0.459-2.228 0.523-4.41 0.67-5.546 0.373-15.514-1.73-17.746-9.031-0.517-1.692-0.473-3.525 0.353-4.939 1.168-2.001 3.701-3.451 6.776-4.13 1.205-0.283 2.626-0.398 4.907-0.398 3.295 0 5.095 0.215 7.756 1.176 0.812 0.3 1.93 1.149 2.145 1.848l0.678 2.421c0.468 1.533 1.27 1.94 2.116 1.94 0.057 0 1.764-0.141 1.764 0.988 0 0.362-0.394 0.558-0.882 0.558" fill="#231f20"/></g><g transform="translate(394.16 327.61)"><path d="m0 0 1.941-5.539-7.198 0.035zm10.622-11.622c-1.428 0.158-2.054 2.34-2.224 2.814l-3.881 11.117c-0.554 1.426-1.239 2.186-3.41 2.186l-3.414 0.01c-0.645-0.024-1.07-0.239-1.07-0.715 0-0.776 0.744-0.67 1.658-0.712 0.637-0.03 0.747-0.403 0.407-0.706l-12.131-12.686c-0.629-0.725-1.621-1.264-3.192-1.479-0.352-0.055-1.211-0.068-1.232-0.695-0.022-0.659 0.583-0.599 1.186-0.624l7.163 4e-3c0.814 0 1.104 0.402 1.107 0.615 5e-3 0.276-0.075 0.563-0.644 0.654-1.173 0.015-1.53 0.532-1.018 1.044 0.218 0.217 2.497 2.857 2.497 2.857h10.173l0.928-2.218c0.346-0.859-0.317-1.506-1.226-1.594-0.557-0.055-1.005-0.229-1.11-0.57-0.049-0.163-0.021-0.334 0.078-0.468 0.148-0.2 0.429-0.344 0.832-0.344l6.58 4e-3c1.687 9e-3 2.876-0.154 3.092 0.515 0.177 0.549-0.238 0.832-1.149 0.991" fill="#231f20"/></g><g transform="translate(457.2,332.11)"><path d="m0 0-2.87-9e-3c-1.148-0.023-2.206 0.28-3.256-0.958l-9.315-10.331-2.554 9.442c-0.447 1.701-1.094 1.847-2.808 1.847h-4.036c-0.384 0-1.204-0.026-1.215-0.636-0.012-0.588 0.294-0.699 1.025-0.743 0.664-0.039 1.159-0.042 1.243-0.534 0.076-0.447-0.746-1.59-0.968-1.922l-6.447-10.061c-0.644-0.963-1.198-2.2-2.658-2.19-1.552 0.011-1.907-0.401-1.935-0.818-0.042-0.638 0.49-0.681 1.053-0.702l7.749-4e-3c0.643 0 1.047 0.321 1.064 0.674 0.01 0.223-0.065 0.76-0.978 0.765-1.617 9e-3 -1.531 0.606-1.347 0.945 0.2 0.369 5.83 9.627 5.83 9.627l3.209-11.521c0.123-0.456 0.138-1.043 0.894-0.999 0.856 0.05 11.754 12.615 11.754 12.615l-2e-3 -8.939c0.019-0.193-0.032-0.48-0.12-0.764-0.219-0.719-1.372-1.07-2.176-1.193-0.658-0.101-1.054-0.161-1.158-0.5-0.06-0.198 0-0.338 0.062-0.421 0.168-0.229 0.487-0.289 1.548-0.289h8.763c0.884 0 1.523 0 1.678 0.511 0.044 0.144 0.028 0.291-0.044 0.413-0.147 0.244-1.04 0.304-1.362 0.368l-0.19 0.039c-1.071 0.208-1.587 1.358-1.615 1.984l-0.435 10.696c-0.02 1.333-0.041 2.033 1.862 2.194 0.798 0.068 1.416 0.232 1.414 0.713-3e-3 0.61-0.652 0.701-1.659 0.701" fill="#231f20"/></g><g transform="translate(499.6 332.53)"><path d="m0 0-0.206-0.014c-0.333-0.024-0.505-0.416-1.562-0.416h-16.767c-0.562 0-1.261 0-1.435-0.57-0.07-0.227-5e-3 -0.388 0.061-0.483 0.187-0.271 0.554-0.293 1.018-0.321 0.491-0.03 1.004-0.067 1.244-0.414 0.183-0.264 0.177-0.72-0.018-1.356l-3.059-10.328c-0.308-1.008-0.541-1.591-0.724-1.824-0.529-0.622-1.402-0.895-2.103-0.957-0.636-0.055-1.186-0.104-1.334-0.588-0.053-0.173-0.028-0.344 0.071-0.477 0.216-0.291 0.689-0.3 1.176-0.3h16.967c2.594 2e-3 3.195 3.058 4.469 5.051 0.324 0.507-7e-3 0.997-0.459 0.997-0.374 0-0.77-0.282-1.051-0.62-2.304-2.776-3.654-3.067-6.428-3.067 0 0-2.88-0.01-5.315 0.057-0.51 0.014-0.723 0.497-0.478 1.315 0.136 0.454 1.233 4.303 1.233 4.303h6.361c0.554-0.201 0.537-0.877 0.469-1.416-0.04-0.319-0.082-0.649 0.135-0.895 0.134-0.152 0.337-0.229 0.604-0.229 0.434 0 0.765 0.379 0.998 1.141l1.483 4.854c0.151 0.492 0.179 1.037 0.058 1.2-0.14 0.189-0.358 0.293-0.614 0.293-0.735 0-1.024-0.883-1.248-1.319-0.305-0.592-0.906-1.166-1.668-1.18h-5.852l1.03 3.605c0.147 0.389 0.44 1.132 1.106 1.141 2.138 0.029 5.738 0.029 5.738 0.029 2.119 0 2.963 0.213 3.462-0.457 0.212-0.285 0.119-0.961 0.111-1.673-4e-3 -0.251-0.059-0.495 0.127-0.68 0.202-0.202 0.431-0.217 0.621-0.21 0.718 0.029 1.859 3.406 2.321 4.195l0.1 0.329c0.381 1.108-0.278 1.257-0.642 1.284" fill="#231f20"/></g><g transform="translate(443.82 418.47)"><path d="m0 0 7.537 1e-3s1.013 3e-3 0.69-1.183c-0.437-1.598-2.807-10.283-3.326-12.135-0.337-1.063-0.865-1.18-1.232-1.18h-0.04c-0.015 0-0.019 3e-3 -1e-3 0h-7.603zm-20.469-72.898 10.852 38.376h7.695s0.972 0.15 0.611-1.068l-10.446-37.308h20.45l9.487 33.604c0.828 2.869 1.967 10.621-3.675 13.197 5.289 1.137 8.347 4.099 10.402 10.645 2.973 9.472 4.609 16.434 5.735 20.971 0.265 1.068 0.48 1.933 0.644 2.56 1.012 3.884 0.67 6.961-1.015 9.143-2.189 2.834-5.857 3.054-6.929 3.054-0.121 0-0.212-3e-3 -0.267-5e-3l-37.824 5e-3 -26.162-93.174" fill="#231f20"/></g><g transform="translate(227.68 424.27)"><path d="m0 0c-4.461-16.128-13.743-49.687-18.619-66.18-1.294-4.377-1.152-7.751 0.541-9.938 1.995-2.576 5.614-2.575 6.049-2.575h29.717l5.574 20.063h-16.955c-1.017 0-0.648 0.835-0.648 0.835l5.174 18.111h11.714l12.261 19.419h-18.612l3.761 13.584s0.186 0.973 0.957 0.973c3.086-8e-3 17.343 0 17.343 0l5.576 20.188h-31.772c-0.105 9e-3 -0.28 0-0.513 0-1.767 0-7.692-0.576-9.753-7.999" fill="#231f20"/></g><g transform="translate(362.01 348.15)"><path d="m0 0c1.743-2.339 4.488-2.576 5.588-2.576 0.206 0 0.364-6e-3 0.461 0h29.717l5.574 20.064h-16.955c-1.017 0-0.648 0.835-0.648 0.835l5.174 18.111h11.714l12.261 19.419h-18.611l3.76 13.584s0.186 0.973 0.958 0.973c3.085-8e-3 17.343 0 17.343 0l5.575 20.188h-31.772c-0.105 8e-3 -0.28 0-0.512 0-1.768 0-7.693-0.576-9.755-7.999l-1.794-6.481c-4.46-16.128-13.743-49.686-18.619-66.18-1.293-4.378-1.112-7.721 0.541-9.938" fill="#231f20"/></g><g transform="translate(191.98 345.58)"><path d="m0 0 38.847 93.17h-20.641l-16.981-43.338 1.086 43.338h-21.795l1.848-93.17" fill="#231f20"/></g><g transform="translate(527.07 436.11)"><path d="m0 0c-1.315 1.73-3.394 2.634-6.181 2.634h-29.751c-0.131 0.012-0.351 0-0.644 0-1.731 0-7.54-0.581-9.639-8.049-0.245-0.876-0.861-3.223-1.672-6.313-1.553-5.922-3.9-14.868-5.644-21.069-1.473-4.559 1.453-7.28 1.564-7.38l17.841-15.725c0.534-0.482 4.212-3.583 3.985-4.41-0.648-2.352-2.761-9.128-3.086-10.174h-0.326c-0.055 0.017-0.119 0-0.205 0h-10.958c-0.805 0-0.389 0.838-0.389 0.838l3.121 11.096h-18.564l-6.485-24.263c-0.099-0.331-0.928-3.291 0.747-5.553 0.735-0.99 2.222-2.172 5.141-2.172h29.774c7.252 0 11.044 5.447 12.059 8.4 0.047 0.157 4.655 15.749 7.943 27.773 1.487 4.885-1.088 7.534-1.622 8.019l-17.404 15.796c-0.072 0.081-4.166 3.511-3.926 4.39 1.295 4.941 2.234 7.766 2.274 7.873 0.233 0.621 0.542 0.589 0.643 0.59h11.382c0.519 0 0.324-0.605 0.324-0.605l-2.457-9.055h17.79l5.423 19.925c0.126 0.454 1.162 4.51-1.058 7.434" fill="#231f20"/></g><g transform="translate(280.27 345.57)"><path d="m0 0h17.46l26.158 93.174h-18.154l-9.904-37.429-0.834 37.429h-18.465l-26.156-93.174h18.138l11.826 43.27" fill="#231f20"/></g><g transform="translate(352.54 342.86)"><path d="m0 0 16.44 59.909h-23.138l1.957-6.757-8.419-30.29h-9.377c-1.319 0-0.681 1.179-0.681 1.179l13.833 50.737c0.088 0.303 0.268 0.819 1.062 0.819 0 0 8.546 3e-3 9.381 0 0.832-4e-3 0.595-0.76 0.595-0.76l-2.604-9.565h19.091l5.613 20.58c0.125 0.453 1.162 4.505-1.058 7.425-1.315 1.728-3.394 2.605-6.184 2.605h-33.052c-1.721 0-7.5-0.595-9.587-8.013-0.627-2.226-1.778-6.375-3.247-11.671l-3.553-12.79c-4.384-15.534-12.871-45.576-13.615-48.084-1.293-4.371-1.112-7.71 0.542-9.924 1.743-2.333 4.43-2.692 5.529-2.692h18.562l-2.426-9.334" fill="#231f20"/></g><g transform="translate(143.82 345.58)"><path d="m0 0h23.556l-0.369 20.971-23.203-17.615" fill="#231f20"/></g><g transform="translate(143.79 352.84)"><path d="m0 0 23.368 17.751-23.556 22.39 0.041-8.851-20.085-1e-3 19.884 42.911 0.139-29.677 23.346-22.31-1.72 102.09h-21.693l-84.747-172.59h27.919l26.563 57.327h30.498" fill="#231f20"/></g><g transform="translate(64.209 385.17)"><path d="m 0,0 c 0,-9.92 1.426,-22.43 11.669,-38.434 l 6.61,13.464 C 14.145,-17.194 12.44,-6.465 12.44,0 c 0,26.408 19.027,50.696 45.339,55.375 2.661,5.469 4.917,10.102 6.595,13.544 C 26.608,66.64 0,35.142 0,0" fill="#231f20"/></g><g transform="translate(173.74 342.95)"><path d="m0 0c-10.207-9.643-23.976-15.066-39.126-15.066-10.947 0-21.172 3.087-29.854 8.437l-5.306-11.077c10.421-6.222 22.311-9.797 35.33-9.797 22.617 0 42.714 10.79 55.425 27.503" fill="#231f20"/></g><path d="m313.15 486.45h63.98v1.123h-63.98z" fill="#231f20"/><path d="m313.15 457.38h63.98v1.122h-63.98z" fill="#231f20"/><g transform="translate(322.03 468.55)"><path d="m0 0v-3.221c0-2.748-1.358-4.105-4.105-4.105h-0.696c-2.715 0-4.041 1.357-4.041 4.042v3.079h2.463v-3.174c0-1.137 0.537-1.674 1.673-1.674h0.506c1.137 0 1.674 0.537 1.674 1.674v3.316c0 1.105-0.379 1.579-1.106 2.116l-3.095 2.242c-1.642 1.168-2.115 2.305-2.115 4.105v2.653c0 2.748 1.358 4.106 4.105 4.106h0.632c2.716 0 4.042-1.358 4.042-4.043v-1.895h-2.463v1.99c0 1.137-0.537 1.674-1.674 1.674h-0.442c-1.137 0-1.674-0.537-1.674-1.674v-2.779c0-1.105 0.411-1.579 1.137-2.116l3.063-2.211c1.611-1.168 2.116-2.21 2.116-4.105" fill="#231f20"/></g><g transform="translate(325.91 461.41)"><path d="m0 0v19.769h-3.315v2.337h9.158v-2.337h-3.316v-19.769" fill="#231f20"/></g><g transform="translate(341.72 465.33)"><path d="m0 0c0-2.748-1.358-4.105-4.105-4.105h-0.79c-2.747 0-4.105 1.357-4.105 4.105v18.19h2.526v-18.316c0-1.137 0.537-1.674 1.674-1.674h0.6c1.137 0 1.674 0.537 1.674 1.674v18.316h2.526" fill="#231f20"/></g><g transform="translate(345.85 463.72)"><path d="m0 0h1.515c1.706 0 2.495 0.852 2.495 2.558v12.379c0 1.706-0.789 2.557-2.495 2.557h-1.515zm-2.526 19.8h4.168c3.316 0 4.895-1.579 4.895-4.895v-12.316c0-3.316-1.579-4.895-4.895-4.895h-4.168" fill="#231f20"/></g><path d="m353.91 461.41h2.526v22.106h-2.526z" fill="#231f20"/><g transform="translate(362.92 481.4)"><path d="m0 0h-0.758c-1.137 0-1.674-0.537-1.674-1.674v-14.526c0-1.138 0.537-1.674 1.674-1.674h0.758c1.137 0 1.674 0.536 1.674 1.674v14.526c0 1.137-0.537 1.674-1.674 1.674m0.095-20.179h-0.948c-2.747 0-4.105 1.357-4.105 4.105v14.274c0 2.748 1.358 4.106 4.105 4.106h0.948c2.747 0 4.105-1.358 4.105-4.106v-14.274c0-2.748-1.358-4.105-4.105-4.105" fill="#231f20"/></g><g transform="translate(377.07 468.55)"><path d="m0 0v-3.221c0-2.748-1.359-4.105-4.106-4.105h-0.695c-2.716 0-4.042 1.357-4.042 4.042v3.079h2.463v-3.174c0-1.137 0.537-1.674 1.674-1.674h0.505c1.137 0 1.674 0.537 1.674 1.674v3.316c0 1.105-0.379 1.579-1.106 2.116l-3.095 2.242c-1.641 1.168-2.115 2.305-2.115 4.105v2.653c0 2.748 1.358 4.106 4.105 4.106h0.632c2.716 0 4.043-1.358 4.043-4.043v-1.895h-2.464v1.99c0 1.137-0.537 1.674-1.674 1.674h-0.442c-1.137 0-1.674-0.537-1.674-1.674v-2.779c0-1.105 0.411-1.579 1.137-2.116l3.064-2.211c1.611-1.168 2.116-2.21 2.116-4.105" fill="#231f20"/></g><path d="m242.3 457.37h67.065v30.209h-67.065z" fill="#231f20"/><g transform="translate(307.18 465.4)"><path d="m0 0h-3.394v18.128h-3.96v-22.103h7.354zm-43.031 2.939h2.235l-1.138 9.452zm10.689 11.252c-9e-3 0-0.016-1e-3 -0.02-1e-3v-7.109c0.312 1e-3 0.632 0.075 0.938 0.222 0.932 0.454 1.725 1.583 1.725 3.372 0 3.423-2.331 3.518-2.643 3.516m24.298-0.097h-3.579v-4.993h3.579v-4.036h-3.579v-5.069h3.579v-3.976h-7.538v20.036l-3.177-20.036-4.65-0.013s-2.372 14.189-2.376 14.218c0.383-2.293-1.057-4.688-2.332-5.633l2.516-8.572h-0.01l2e-3 -5e-3h-3.91l-1.918 7.315-0.925-0.135v-7.175h-0.011v-5e-3h-5e-3l-7.558 5e-3 -0.465 3.4h-3.099l-0.466-3.4h-7.699v10.655l-1.79-10.655h-2.122l-1.818 10.655v-10.655h-3.993v22.105h5.071l1.78-11.421 1.827 11.421h5.069v-20.329l3.048 20.331 5.296-2e-3 2.949-19.624 0.015 19.624s4.024 2e-3 4.048 0c3.645 0 5.299-2.674 5.766-3.594l-0.453 3.594h4.044l1.824-13.463 1.845 13.463h11.215" fill="#fff"/></g></g></svg>
